<svg xmlns="http://www.w3.org/2000/svg" xmlns:xlink="http://www.w3.org/1999/xlink" baseProfile="tiny" version="1.1"><defs><style>.img{display:none}.img:target{display:inline}</style></defs><svg viewBox="0 0 24 24"><g id="refresh" class="img"><path fill="#646464" d="M17.9,11H14l2.7-2.7C15.6,6.9,13.9,6,12,6c-3.3,0-6,2.7-6,6	c0,3.3,2.7,6,6,6c2.2,0,4.1-1.2,5.2-3h3.3c-1.2,3.5-4.6,6-8.5,6c-5,0-9-4-9-9c0-5,4-9,9-9c2.7,0,5.2,1.2,6.8,3.2L21,4v7h-0.1H17.9z"/></g></svg><svg viewBox="0 0 18 18"><g id="upload" class="img"><path fill="#646464" d="m17,18l-16,0l0,-2l16,0l0,2zm-8,-18l-6,7l4,0l0,7l4,0l0,-7l4,0l-6,-7z"/></g></svg><svg viewBox="0 0 18 18"><g id="add-folder" class="img"><path fill="#646464" d="M11,15H2V5h13v4h2V5c0-1.1-0.9-2-2-2H9L7,1H2C0.9,1,0,1.9,0,3v12c0,1.1,0.9,2,2,2h9V15z"/><polygon fill="#646464" points="18 13 16 13 16 11 14 11 14 13 12 13 12 15 14 15 14 17 16 17 16 15 18 15"/></g></svg><svg viewBox="0 0 18 18"><g id="open" class="img"><path fill="#646464" d="M14,10v6H4V2h3h1L6,0H4C2.9,0,2,0.9,2,2v14c0,1.1,0.9,2,2,2h10c1.1,0,2-0.9,2-2v-6l-2-2V10z"/><path fill="#646464" d="M11,0c-0.6,0-1,0.4-1,1s0.4,1,1,1h1.6L9.3,5.3c-0.4,0.4-0.4,1,0,1.4C9.5,6.9,9.7,7,10,7s0.5-0.1,0.7-0.3 L14,3.4V5c0,0.6,0.4,1,1,1s1-0.4,1-1V0H11z"/></g></svg></svg>